<?xml version="1.0" standalone="no"?>
<!DOCTYPE svg PUBLIC "-//W3C//DTD SVG 20010904//EN"
 "http://www.w3.org/TR/2001/REC-SVG-20010904/DTD/svg10.dtd">
<svg version="1.0" xmlns="http://www.w3.org/2000/svg"
 width="512.000000pt" height="512.000000pt" viewBox="0 0 512.000000 512.000000"
 preserveAspectRatio="xMidYMid meet">

<g transform="translate(0.000000,512.000000) scale(0.100000,-0.100000)"
fill="#000000" stroke="none">
<path d="M962 5101 c-66 -23 -117 -63 -159 -125 -45 -67 -53 -103 -53 -253 l0
-133 -165 0 c-187 0 -224 -9 -250 -59 -14 -28 -15 -104 -13 -699 3 -594 5
-671 19 -692 12 -19 307 -163 1118 -549 l1101 -525 0 -178 0 -178 -166 0
c-188 0 -222 -9 -248 -65 -20 -41 -20 -49 0 -91 10 -22 29 -39 55 -51 l39 -17
0 -555 c0 -602 1 -610 55 -710 35 -63 116 -141 181 -174 193 -97 429 -34 545
146 70 108 69 95 69 728 l0 567 36 12 c39 13 74 60 74 98 0 39 -29 83 -65 98
-25 10 -79 14 -200 14 l-165 0 2 222 c1 177 -1 229 -13 253 -12 26 -118 79
-954 477 -517 246 -1015 484 -1107 527 l-168 80 0 551 0 550 109 0 109 0 4
-152 c3 -136 6 -158 26 -196 35 -66 88 -119 150 -149 l57 -28 1680 0 1680 0
53 24 c65 29 143 113 167 178 12 33 19 90 22 186 l5 137 54 0 c70 0 119 21
138 59 20 38 20 64 0 102 -19 38 -68 59 -138 59 l-54 0 -5 138 c-3 95 -10 152
-22 185 -24 65 -102 149 -167 178 l-53 24 -1665 2 c-1592 2 -1667 2 -1718 -16z
m3342 -205 c67 -28 66 -22 66 -416 0 -394 1 -388 -66 -416 -50 -21 -3228 -21
-3279 0 -64 27 -65 36 -65 416 0 378 2 389 63 415 48 21 3231 22 3281 1z
m-1424 -3959 l0 -553 -26 -53 c-45 -90 -140 -134 -238 -110 -67 16 -138 85
-154 151 -9 33 -12 205 -12 582 l0 536 215 0 215 0 0 -553z"/>
<path d="M1217 4670 c-38 -30 -52 -80 -33 -123 27 -66 40 -68 376 -65 l298 3
26 24 c51 48 40 142 -20 170 -17 7 -125 11 -323 11 -284 0 -300 -1 -324 -20z"/>
<path d="M2059 4661 c-47 -48 -37 -130 21 -164 22 -14 55 -17 160 -17 105 0
138 3 160 17 58 34 68 116 21 164 l-29 29 -152 0 -152 0 -29 -29z"/>
<path d="M2943 3615 c-63 -27 -63 -25 -63 -537 0 -501 2 -518 55 -617 35 -63
116 -141 181 -174 193 -97 429 -34 545 146 64 99 69 128 69 414 0 281 5 310
59 337 38 20 64 20 102 0 43 -22 59 -68 59 -168 0 -110 21 -174 78 -238 63
-69 128 -100 222 -106 60 -3 86 0 132 18 73 27 141 92 176 168 l27 57 3 294
c2 162 1 309 -2 327 -14 69 -87 109 -150 79 -63 -30 -66 -48 -66 -369 0 -189
-4 -293 -11 -310 -28 -60 -122 -71 -170 -20 -21 22 -24 37 -29 143 -5 101 -10
126 -33 174 -30 61 -83 114 -149 149 -36 19 -58 23 -138 23 -80 0 -102 -4
-138 -23 -66 -35 -119 -88 -149 -150 l-28 -57 -5 -285 -5 -285 -28 -47 c-47
-81 -141 -120 -234 -97 -65 17 -135 87 -151 151 -8 32 -12 185 -12 495 0 497
2 481 -66 509 -40 17 -41 17 -81 -1z"/>
</g>
</svg>
