<?xml version="1.0" standalone="no"?>
<!DOCTYPE svg PUBLIC "-//W3C//DTD SVG 20010904//EN"
 "http://www.w3.org/TR/2001/REC-SVG-20010904/DTD/svg10.dtd">
<svg version="1.0" xmlns="http://www.w3.org/2000/svg"
 width="512.000000pt" height="512.000000pt" viewBox="0 0 512.000000 512.000000"
 preserveAspectRatio="xMidYMid meet">

<g transform="translate(0.000000,512.000000) scale(0.100000,-0.100000)"
fill="#000000" stroke="none">
<path d="M3120 4891 c-75 -23 -125 -71 -149 -140 -8 -25 -11 -324 -11 -1077
l0 -1044 -224 0 -224 0 -4 143 c-3 136 -4 144 -33 196 -16 29 -57 78 -92 108
l-63 55 0 89 0 89 84 0 c115 0 132 14 129 101 -9 228 -168 429 -398 502 -67
21 -87 22 -406 22 l-336 0 -49 -30 c-59 -36 -104 -114 -104 -179 1 -77 58
-163 127 -192 20 -9 70 -14 127 -14 85 0 98 -2 122 -24 l28 -23 -97 -119
c-104 -127 -115 -156 -76 -195 14 -14 30 -19 52 -17 26 2 46 20 115 103 46 55
90 108 97 118 11 16 16 17 34 5 19 -12 21 -22 21 -123 l-1 -110 -95 -55 c-157
-90 -184 -138 -184 -324 l0 -125 -267 -3 c-303 -3 -308 -4 -370 -86 -62 -82
-53 -192 22 -267 22 -22 56 -45 75 -51 34 -9 35 -11 46 -84 7 -41 44 -455 84
-920 81 -947 74 -906 158 -965 l44 -30 1427 0 1427 0 43 28 c50 33 78 76 87
133 5 36 -14 109 -135 499 -78 251 -141 470 -141 487 0 52 -30 150 -68 223
-73 139 -236 264 -385 295 l-55 11 -4 84 c-4 69 -9 90 -31 123 -14 22 -40 48
-57 58 l-30 18 0 1266 c0 867 -3 1277 -11 1304 -27 96 -154 166 -249 137z m95
-156 l25 -24 0 -1256 0 -1255 -70 0 -70 0 0 1255 0 1256 25 24 c31 32 59 32
90 0z m-1665 -1005 l0 -70 -65 0 c-71 0 -105 20 -105 61 0 54 35 77 118 78
l52 1 0 -70z m490 60 c164 -26 307 -155 345 -312 l7 -28 -251 0 -250 0 -98 83
-98 83 -3 92 -3 92 143 0 c79 0 172 -5 208 -10z m140 -550 l0 -70 -125 0 -125
0 0 70 0 70 125 0 125 0 0 -70z m104 -262 c77 -69 86 -92 86 -233 l0 -115
-360 0 -360 0 0 114 c0 141 9 156 135 231 l90 53 176 1 175 1 58 -52z m676
-558 l0 -70 -970 0 -971 0 -24 25 c-14 13 -25 34 -25 45 0 12 11 32 25 45 l24
25 971 0 970 0 0 -70z m0 -223 c0 -8 -17 -25 -37 -38 -53 -35 -77 -89 -81
-181 l-4 -77 -54 -11 c-30 -7 -92 -30 -136 -52 -150 -75 -266 -222 -304 -384
-8 -38 -21 -72 -27 -76 -28 -17 -182 -30 -293 -25 -142 6 -232 30 -359 92
-271 134 -476 415 -501 688 l-7 77 902 0 c744 0 901 -2 901 -13z m378 -153
c19 -13 22 -24 22 -75 l0 -59 -190 0 -190 0 0 55 c0 90 10 95 188 95 117 0
152 -3 170 -16z m152 -284 c96 -15 198 -69 261 -138 50 -54 100 -144 113 -204
l6 -28 -699 0 -700 0 15 53 c47 159 192 289 354 316 76 12 571 13 650 1z
m-2138 -266 c153 -143 352 -241 558 -273 78 -13 267 -14 330 -1 25 4 47 6 49
4 2 -2 -49 -176 -115 -386 -79 -257 -118 -399 -119 -430 l0 -48 -351 0 c-321
0 -354 2 -372 18 -19 16 -24 58 -71 617 -28 330 -51 613 -51 628 0 28 1 28 38
-20 21 -26 68 -75 104 -109z m1348 -266 c0 -20 -114 -781 -126 -840 l-6 -28
-164 0 c-166 0 -196 5 -208 36 -5 12 195 686 249 842 3 9 38 12 130 12 122 0
125 -1 125 -22z m400 -423 l0 -445 -195 0 -195 0 5 23 c2 12 32 202 65 422 33
220 63 410 65 423 5 21 9 22 130 22 l125 0 0 -445z m400 439 c0 -3 29 -194 65
-424 36 -230 65 -428 65 -439 0 -21 -3 -21 -192 -19 l-193 3 -3 430 c-1 237 0
436 3 443 3 9 39 12 130 12 69 0 125 -3 125 -6z m522 -414 c70 -228 128 -420
128 -427 0 -6 -10 -19 -22 -27 -18 -13 -54 -16 -185 -16 -160 0 -163 0 -168
22 -14 64 -132 854 -128 861 2 4 59 6 126 5 l121 -3 128 -415z"/>
</g>
</svg>
