<?xml version="1.0" encoding="UTF-8"?>
<!DOCTYPE svg PUBLIC "-//W3C//DTD SVG 1.1//EN" "http://www.w3.org/Graphics/SVG/1.1/DTD/svg11.dtd">
<svg xmlns="http://www.w3.org/2000/svg" version="1.1" width="512px" height="512px" style="shape-rendering:geometricPrecision; text-rendering:geometricPrecision; image-rendering:optimizeQuality; fill-rule:evenodd; clip-rule:evenodd" xmlns:xlink="http://www.w3.org/1999/xlink">
<g><path style="opacity:0.979" fill="#010101" d="M 247.5,-0.5 C 252.833,-0.5 258.167,-0.5 263.5,-0.5C 282.396,7.45907 289.063,21.2924 283.5,41C 365.461,55.9665 419.961,102.8 447,181.5C 453.802,207.389 456.636,233.722 455.5,260.5C 478.997,263.157 489.164,276.157 486,299.5C 482.75,311.083 475.25,318.25 463.5,321C 430.835,321.5 398.168,321.667 365.5,321.5C 366.286,329.977 363.62,337.144 357.5,343C 324.962,362.879 292.962,383.545 261.5,405C 247.582,433.138 225.915,452.805 196.5,464C 173.434,479.856 150.434,495.689 127.5,511.5C 124.5,511.5 121.5,511.5 118.5,511.5C 104.881,494.969 91.7142,477.969 79,460.5C 76.4522,455.034 77.2856,450.2 81.5,446C 91.3652,439.303 101.365,432.803 111.5,426.5C 112.622,410.627 117.789,396.294 127,383.5C 132.299,378.131 137.799,373.131 143.5,368.5C 146.453,353.066 149.786,337.733 153.5,322.5C 118.171,321.667 82.838,321.167 47.5,321C 32.6192,316.6 24.6192,306.6 23.5,291C 25.8761,272.124 36.5428,261.957 55.5,260.5C 51.1662,185.366 78.1662,124.533 136.5,78C 163.714,58.2555 194.047,45.9221 227.5,41C 221.948,21.271 228.615,7.43765 247.5,-0.5 Z M 215.5,321.5 C 234.17,321.333 252.836,321.5 271.5,322C 253.167,332.167 234.833,342.333 216.5,352.5C 216.167,352 215.833,351.5 215.5,351C 218.026,341.121 218.026,331.288 215.5,321.5 Z"/></g>
<g><path style="opacity:1" fill="#e5ebeb" d="M 252.5,19.5 C 262.04,18.8703 266.206,23.2036 265,32.5C 260.812,40.0046 255.145,41.3379 248,36.5C 243.59,29.124 245.09,23.4573 252.5,19.5 Z"/></g>
<g><path style="opacity:1" fill="#bfd9fd" d="M 239.5,59.5 C 322.905,57.2638 383.071,93.2638 420,167.5C 427.64,184.728 432.14,202.728 433.5,221.5C 409.164,221.333 384.831,221.5 360.5,222C 354.234,225.997 353.067,231.163 357,237.5C 358.579,239.041 360.413,240.208 362.5,241C 386.498,241.5 410.498,241.667 434.5,241.5C 434.5,248.167 434.5,254.833 434.5,261.5C 315.167,261.5 195.833,261.5 76.5,261.5C 71.6271,175.039 107.627,112.539 184.5,74C 202.273,66.5529 220.607,61.7196 239.5,59.5 Z"/></g>
<g><path style="opacity:1" fill="#030304" d="M 186.5,101.5 C 197.938,100.755 202.105,105.755 199,116.5C 193.253,120.959 187.086,124.793 180.5,128C 160.116,142.251 145.616,161.085 137,184.5C 131.295,191.046 125.628,191.046 120,184.5C 118.682,181.594 118.348,178.594 119,175.5C 131.975,142.03 154.475,117.363 186.5,101.5 Z"/></g>
<g><path style="opacity:1" fill="#070809" d="M 316.5,219.5 C 328.129,220.278 331.629,225.944 327,236.5C 321.391,240.716 316.058,240.383 311,235.5C 308.024,228.462 309.857,223.129 316.5,219.5 Z"/></g>
<g><path style="opacity:1" fill="#e9f0f0" d="M 50.5,281.5 C 187.167,281.333 323.834,281.5 460.5,282C 466.467,285.392 467.967,290.226 465,296.5C 463.457,298.378 461.624,299.878 459.5,301C 323.5,301.667 187.5,301.667 51.5,301C 44.7282,297.617 42.8949,292.451 46,285.5C 47.3968,283.93 48.8968,282.596 50.5,281.5 Z"/></g>
<g><path style="opacity:1" fill="#fcdad3" d="M 179.5,321.5 C 187.663,320.164 193.497,323.164 197,330.5C 195.673,344.31 194.173,358.144 192.5,372C 192.526,378.359 195.693,381.859 202,382.5C 206.754,381.376 211.254,379.542 215.5,377C 248.167,358.667 280.833,340.333 313.5,322C 323.833,321.333 334.167,321.333 344.5,322C 345.059,322.725 345.392,323.558 345.5,324.5C 344.002,326.829 342.002,328.663 339.5,330C 307.485,349.337 276.152,369.67 245.5,391C 237.871,407.632 226.871,421.632 212.5,433C 205.058,438.054 197.058,442.054 188.5,445C 167.5,459.167 146.5,473.333 125.5,487.5C 117.845,477.539 110.178,467.539 102.5,457.5C 112.115,451.06 121.615,444.394 131,437.5C 131.667,436.167 132.333,434.833 133,433.5C 130.803,411.045 139.636,394.879 159.5,385C 160.46,383.581 161.293,382.081 162,380.5C 165.242,362.286 169.242,344.286 174,326.5C 175.812,324.7 177.645,323.033 179.5,321.5 Z M 215.5,321.5 C 218.026,331.288 218.026,341.121 215.5,351C 215.833,351.5 216.167,352 216.5,352.5C 234.833,342.333 253.167,332.167 271.5,322C 252.836,321.5 234.17,321.333 215.5,321.5 Z"/></g>
</svg>
