<?xml version="1.0" encoding="UTF-8"?>
<!DOCTYPE svg PUBLIC "-//W3C//DTD SVG 1.1//EN" "http://www.w3.org/Graphics/SVG/1.1/DTD/svg11.dtd">
<svg xmlns="http://www.w3.org/2000/svg" version="1.1" width="571px" height="570px" style="shape-rendering:geometricPrecision; text-rendering:geometricPrecision; image-rendering:optimizeQuality; fill-rule:evenodd; clip-rule:evenodd" xmlns:xlink="http://www.w3.org/1999/xlink">
<g><path style="opacity:0.973" fill="#000000" d="M 43.5,149.5 C 48.8437,149.334 54.1771,149.501 59.5,150C 63.4685,150.964 66.6351,153.131 69,156.5C 71,160.5 73,164.5 75,168.5C 94.1467,224.941 113.48,281.274 133,337.5C 151.667,282.167 170.333,226.833 189,171.5C 195.064,149.591 208.231,143.757 228.5,154C 236.518,162.038 238.685,171.538 235,182.5C 212.863,243.244 190.53,303.91 168,364.5C 158.907,393.13 140.407,401.964 112.5,391C 105.521,385.235 100.354,378.068 97,369.5C 73.7217,306.608 50.7217,243.608 28,180.5C 24.6828,165.801 29.8495,155.467 43.5,149.5 Z"/></g>
<g><path style="opacity:0.966" fill="#000000" d="M 290.5,149.5 C 309.672,146.482 320.506,154.482 323,173.5C 323.667,239.5 323.667,305.5 323,371.5C 320.518,390.672 309.685,398.506 290.5,395C 279.014,389.542 273.514,380.376 274,367.5C 273.333,304.167 273.333,240.833 274,177.5C 273.167,164.132 278.667,154.799 290.5,149.5 Z"/></g>
<g><path style="opacity:0.981" fill="#000000" d="M 395.5,153.5 C 428.168,153.333 460.835,153.5 493.5,154C 536.06,158.56 557.727,182.226 558.5,225C 557.969,266.206 537.302,290.206 496.5,297C 472.885,299.09 449.218,299.923 425.5,299.5C 425.667,323.836 425.5,348.169 425,372.5C 420.07,394.407 407.237,400.907 386.5,392C 381.421,388.01 378.255,382.843 377,376.5C 376.333,308.5 376.333,240.5 377,172.5C 379.321,162.346 385.488,156.013 395.5,153.5 Z M 425.5,190.5 C 441.837,190.333 458.17,190.5 474.5,191C 500.647,193.827 511.814,208.327 508,234.5C 505.524,244.981 499.357,252.481 489.5,257C 484.323,258.961 478.99,260.294 473.5,261C 457.519,262.134 441.519,262.634 425.5,262.5C 425.5,238.5 425.5,214.5 425.5,190.5 Z"/></g>
</svg>
