<?xml version="1.0" encoding="UTF-8"?>
<!DOCTYPE svg PUBLIC "-//W3C//DTD SVG 1.1//EN" "http://www.w3.org/Graphics/SVG/1.1/DTD/svg11.dtd">
<svg xmlns="http://www.w3.org/2000/svg" version="1.1" width="571px" height="570px" style="shape-rendering:geometricPrecision; text-rendering:geometricPrecision; image-rendering:optimizeQuality; fill-rule:evenodd; clip-rule:evenodd" xmlns:xlink="http://www.w3.org/1999/xlink">
<g><path style="opacity:0.987" fill="#000000" d="M 51.5,124.5 C 196.167,124.333 340.834,124.5 485.5,125C 491.667,127.167 495.833,131.333 498,137.5C 498.667,146.833 498.667,156.167 498,165.5C 494.252,171.542 489.085,173.042 482.5,170C 480.951,168.786 479.785,167.286 479,165.5C 478.5,158.508 478.334,151.508 478.5,144.5C 338.5,144.5 198.5,144.5 58.5,144.5C 58.1667,190.505 58.5001,236.505 59.5,282.5C 70.0897,276.686 81.423,274.019 93.5,274.5C 89.7469,255.982 94.4136,240.149 107.5,227C 112.511,222.995 118.178,220.328 124.5,219C 157.167,218.333 189.833,218.333 222.5,219C 237.061,222.56 246.894,231.394 252,245.5C 253.391,255.1 253.891,264.767 253.5,274.5C 263.5,274.5 273.5,274.5 283.5,274.5C 279.747,255.982 284.414,240.149 297.5,227C 302.511,222.995 308.178,220.328 314.5,219C 347.167,218.333 379.833,218.333 412.5,219C 427.061,222.56 436.894,231.394 442,245.5C 443.106,250.769 443.773,256.103 444,261.5C 454.863,256.363 466.363,254.363 478.5,255.5C 477.785,242.53 483.452,238.364 495.5,243C 496.701,243.903 497.535,245.069 498,246.5C 498.203,250.421 498.703,254.255 499.5,258C 530.964,268.468 550.131,289.968 557,322.5C 561.713,360.441 548.046,389.441 516,409.5C 510.298,411.901 504.631,414.234 499,416.5C 498.667,424.167 498.333,431.833 498,439.5C 496.833,441.333 495.333,442.833 493.5,444C 476.833,444.667 460.167,444.667 443.5,444C 441.667,442.833 440.167,441.333 439,439.5C 438.667,429.833 438.333,420.167 438,410.5C 435.252,408.542 432.418,406.709 429.5,405C 319.167,404.5 208.834,404.333 98.5,404.5C 98.6665,416.171 98.4999,427.838 98,439.5C 96.8333,441.333 95.3333,442.833 93.5,444C 76.8333,444.667 60.1667,444.667 43.5,444C 41.6667,442.833 40.1667,441.333 39,439.5C 38.5001,427.838 38.3335,416.171 38.5,404.5C 26.5668,406.618 18.0668,402.285 13,391.5C 12.3333,380.167 12.3333,368.833 13,357.5C 14.7791,352.592 17.9458,348.925 22.5,346.5C 22.7597,329.439 27.9264,314.106 38,300.5C 38.3333,246.167 38.6667,191.833 39,137.5C 41.3531,131.315 45.5198,126.982 51.5,124.5 Z M 132.5,238.5 C 161.542,238.041 190.542,238.541 219.5,240C 225.667,242.167 229.833,246.333 232,252.5C 233.247,259.779 233.747,267.112 233.5,274.5C 193.5,274.5 153.5,274.5 113.5,274.5C 113.334,269.156 113.501,263.823 114,258.5C 115.219,247.119 121.385,240.452 132.5,238.5 Z M 322.5,238.5 C 351.542,238.041 380.542,238.541 409.5,240C 415.667,242.167 419.833,246.333 422,252.5C 423.397,259.452 423.73,266.452 423,273.5C 383.239,274.497 343.406,274.83 303.5,274.5C 303.334,269.156 303.501,263.823 304,258.5C 305.219,247.119 311.385,240.452 322.5,238.5 Z M 493.5,274.5 C 495.214,275.738 497.214,276.405 499.5,276.5C 499.833,276.5 500.167,276.5 500.5,276.5C 501.287,278.104 502.62,278.771 504.5,278.5C 506.635,280.071 508.968,281.404 511.5,282.5C 511.973,283.906 512.973,284.573 514.5,284.5C 514.973,285.906 515.973,286.573 517.5,286.5C 525.835,294.512 532.168,303.845 536.5,314.5C 540.351,326.222 541.351,338.222 539.5,350.5C 538.336,354.011 537.336,357.677 536.5,361.5C 534.896,362.287 534.229,363.62 534.5,365.5C 532.929,367.635 531.596,369.968 530.5,372.5C 529.094,372.973 528.427,373.973 528.5,375.5C 527.094,375.973 526.427,376.973 526.5,378.5C 525.833,378.5 525.5,378.833 525.5,379.5C 523.5,379.5 522.5,380.5 522.5,382.5C 521.5,382.833 520.833,383.5 520.5,384.5C 517.545,386.122 514.878,388.122 512.5,390.5C 510.973,390.427 509.973,391.094 509.5,392.5C 506.515,393.326 503.849,394.659 501.5,396.5C 489.15,400.794 476.483,402.127 463.5,400.5C 460.274,399.511 456.94,398.511 453.5,397.5C 452.609,396.89 451.609,396.557 450.5,396.5C 448.151,394.659 445.485,393.326 442.5,392.5C 442.027,391.094 441.027,390.427 439.5,390.5C 439.027,389.094 438.027,388.427 436.5,388.5C 436.167,387.5 435.5,386.833 434.5,386.5C 434.027,385.094 433.027,384.427 431.5,384.5C 429.833,382.167 427.833,380.167 425.5,378.5C 425.573,376.973 424.906,375.973 423.5,375.5C 423.573,373.973 422.906,372.973 421.5,372.5C 419.801,369.101 418.134,365.768 416.5,362.5C 416.204,360.597 415.537,358.93 414.5,357.5C 414.5,357.167 414.5,356.833 414.5,356.5C 410.379,342.069 410.712,327.736 415.5,313.5C 418.395,306.708 422.062,300.375 426.5,294.5C 428.5,294.5 429.5,293.5 429.5,291.5C 430.5,291.167 431.167,290.5 431.5,289.5C 433.027,289.573 434.027,288.906 434.5,287.5C 435.5,287.167 436.167,286.5 436.5,285.5C 438.027,285.573 439.027,284.906 439.5,283.5C 441.027,283.573 442.027,282.906 442.5,281.5C 445.485,280.674 448.151,279.341 450.5,277.5C 451.609,277.443 452.609,277.11 453.5,276.5C 466.605,272.037 479.938,271.371 493.5,274.5 Z M 93.5,294.5 C 197.501,294.333 301.501,294.5 405.5,295C 399.505,303.091 396.005,312.257 395,322.5C 394.5,329.826 394.334,337.159 394.5,344.5C 277.833,344.5 161.167,344.5 44.5,344.5C 45.4636,322.363 56.1303,306.863 76.5,298C 82.1987,296.311 87.8654,295.144 93.5,294.5 Z M 32.5,364.5 C 154.5,364.5 276.5,364.5 398.5,364.5C 400.663,371.162 403.663,377.495 407.5,383.5C 282.502,384.5 157.502,384.833 32.5,384.5C 32.5,377.833 32.5,371.167 32.5,364.5 Z M 58.5,404.5 C 65.1667,404.5 71.8333,404.5 78.5,404.5C 78.5,411.167 78.5,417.833 78.5,424.5C 71.8333,424.5 65.1667,424.5 58.5,424.5C 58.5,417.833 58.5,411.167 58.5,404.5 Z M 458.5,417.5 C 465.123,418.38 471.789,418.713 478.5,418.5C 478.5,420.5 478.5,422.5 478.5,424.5C 471.833,424.5 465.167,424.5 458.5,424.5C 458.5,422.167 458.5,419.833 458.5,417.5 Z"/></g>
<g><path style="opacity:0.897" fill="#000000" d="M 485.5,195.5 C 496.032,195.199 500.199,200.199 498,210.5C 495.081,216.025 490.581,217.858 484.5,216C 478.891,212.723 477.058,207.89 479,201.5C 480.494,198.686 482.66,196.686 485.5,195.5 Z"/></g>
<g><path style="opacity:0.118" fill="#969696" d="M 493.5,274.5 C 479.938,271.371 466.605,272.037 453.5,276.5C 453.881,275.069 454.881,274.236 456.5,274C 469.046,270.516 481.379,270.683 493.5,274.5 Z"/></g>
<g><path style="opacity:0.792" fill="#686868" d="M 493.5,274.5 C 496.01,274.054 498.01,274.72 499.5,276.5C 497.214,276.405 495.214,275.738 493.5,274.5 Z"/></g>
<g><path style="opacity:0.306" fill="#9b9b9b" d="M 450.5,277.5 C 448.151,279.341 445.485,280.674 442.5,281.5C 444.579,279.127 447.246,277.794 450.5,277.5 Z"/></g>
<g><path style="opacity:0.184" fill="#999999" d="M 500.5,276.5 C 502.153,276.66 503.486,277.326 504.5,278.5C 502.62,278.771 501.287,278.104 500.5,276.5 Z"/></g>
<g><path style="opacity:0.482" fill="#838383" d="M 511.5,282.5 C 513.027,282.427 514.027,283.094 514.5,284.5C 512.973,284.573 511.973,283.906 511.5,282.5 Z"/></g>
<g><path style="opacity:0.031" fill="#aaaaaa" d="M 439.5,283.5 C 439.027,284.906 438.027,285.573 436.5,285.5C 436.973,284.094 437.973,283.427 439.5,283.5 Z"/></g>
<g><path style="opacity:0.745" fill="#5f5f5f" d="M 514.5,284.5 C 516.027,284.427 517.027,285.094 517.5,286.5C 515.973,286.573 514.973,285.906 514.5,284.5 Z"/></g>
<g><path style="opacity:0.078" fill="#adadad" d="M 434.5,287.5 C 434.027,288.906 433.027,289.573 431.5,289.5C 431.973,288.094 432.973,287.427 434.5,287.5 Z"/></g>
<g><path style="opacity:0.078" fill="#aaaaaa" d="M 429.5,291.5 C 429.5,293.5 428.5,294.5 426.5,294.5C 427.167,293.167 428.167,292.167 429.5,291.5 Z"/></g>
<g><path style="opacity:0.937" fill="#000100" d="M 492.5,297.5 C 501.358,296.402 509.692,297.902 517.5,302C 525.031,310.018 526.198,318.851 521,328.5C 512.19,337.642 503.023,346.475 493.5,355C 503.167,355.333 512.833,355.667 522.5,356C 526.5,359.333 526.5,362.667 522.5,366C 508.5,366.667 494.5,366.667 480.5,366C 476.708,363.947 475.542,360.781 477,356.5C 477.667,355.167 478.333,353.833 479,352.5C 488.065,342.766 497.731,333.766 508,325.5C 512.592,316.429 510.092,310.429 500.5,307.5C 497.236,307.974 494.402,309.307 492,311.5C 490.279,315.11 488.446,318.61 486.5,322C 478.685,324.522 475.518,321.689 477,313.5C 479.685,305.65 484.852,300.316 492.5,297.5 Z"/></g>
<g><path style="opacity:0.924" fill="#000100" d="M 427.5,315.5 C 429.857,315.337 432.19,315.503 434.5,316C 438.667,320.833 442.833,325.667 447,330.5C 450.232,325.212 454.065,320.378 458.5,316C 466.187,314.352 469.021,317.186 467,324.5C 463.167,329.5 459.333,334.5 455.5,339.5C 460,346.5 464.5,353.5 469,360.5C 468.994,366.805 465.828,368.971 459.5,367C 455.276,361.37 450.943,355.87 446.5,350.5C 442.057,355.87 437.724,361.37 433.5,367C 424.304,368.147 421.804,364.647 426,356.5C 430.328,351.179 434.162,345.512 437.5,339.5C 432.746,333.42 428.413,327.087 424.5,320.5C 425.26,318.64 426.26,316.973 427.5,315.5 Z"/></g>
<g><path style="opacity:0.151" fill="#9d9d9d" d="M 536.5,314.5 C 537.931,314.881 538.764,315.881 539,317.5C 541.973,328.618 542.14,339.618 539.5,350.5C 541.351,338.222 540.351,326.222 536.5,314.5 Z"/></g>
<g><path style="opacity:0.227" fill="#959595" d="M 415.5,313.5 C 410.712,327.736 410.379,342.069 414.5,356.5C 412.933,355.319 412.099,353.653 412,351.5C 409.838,340.096 410.171,328.762 413,317.5C 413.2,315.68 414.034,314.347 415.5,313.5 Z"/></g>
<g><path style="opacity:0.961" fill="#6a6a6a" d="M 414.5,357.5 C 415.537,358.93 416.204,360.597 416.5,362.5C 414.787,361.365 414.12,359.698 414.5,357.5 Z"/></g>
<g><path style="opacity:0.176" fill="#9b9b9b" d="M 536.5,361.5 C 536.34,363.153 535.674,364.486 534.5,365.5C 534.229,363.62 534.896,362.287 536.5,361.5 Z"/></g>
<g><path style="opacity:0.608" fill="#838383" d="M 421.5,372.5 C 422.906,372.973 423.573,373.973 423.5,375.5C 422.094,375.027 421.427,374.027 421.5,372.5 Z"/></g>
<g><path style="opacity:0.608" fill="#838383" d="M 530.5,372.5 C 530.573,374.027 529.906,375.027 528.5,375.5C 528.427,373.973 529.094,372.973 530.5,372.5 Z"/></g>
<g><path style="opacity:0.749" fill="#5e5e5e" d="M 423.5,375.5 C 424.906,375.973 425.573,376.973 425.5,378.5C 424.094,378.027 423.427,377.027 423.5,375.5 Z"/></g>
<g><path style="opacity:0.749" fill="#5e5e5e" d="M 528.5,375.5 C 528.573,377.027 527.906,378.027 526.5,378.5C 526.427,376.973 527.094,375.973 528.5,375.5 Z"/></g>
<g><path style="opacity:0.525" fill="#909090" d="M 525.5,379.5 C 524.833,380.833 523.833,381.833 522.5,382.5C 522.5,380.5 523.5,379.5 525.5,379.5 Z"/></g>
<g><path style="opacity:0.078" fill="#a6a6a6" d="M 431.5,384.5 C 433.027,384.427 434.027,385.094 434.5,386.5C 432.973,386.573 431.973,385.906 431.5,384.5 Z"/></g>
<g><path style="opacity:0.565" fill="#7a7a7a" d="M 520.5,384.5 C 518.687,387.647 516.02,389.647 512.5,390.5C 514.878,388.122 517.545,386.122 520.5,384.5 Z"/></g>
<g><path style="opacity:0.227" fill="#a1a1a1" d="M 436.5,388.5 C 438.027,388.427 439.027,389.094 439.5,390.5C 437.973,390.573 436.973,389.906 436.5,388.5 Z"/></g>
<g><path style="opacity:0.694" fill="#8c8c8c" d="M 512.5,390.5 C 512.027,391.906 511.027,392.573 509.5,392.5C 509.973,391.094 510.973,390.427 512.5,390.5 Z"/></g>
<g><path style="opacity:1" fill="#6a6a6a" d="M 439.5,390.5 C 441.027,390.427 442.027,391.094 442.5,392.5C 440.877,393.491 439.877,392.824 439.5,390.5 Z"/></g>
<g><path style="opacity:0.435" fill="#959595" d="M 442.5,392.5 C 445.485,393.326 448.151,394.659 450.5,396.5C 447.246,396.206 444.579,394.873 442.5,392.5 Z"/></g>
<g><path style="opacity:0.376" fill="#848484" d="M 509.5,392.5 C 507.493,394.837 504.827,396.171 501.5,396.5C 503.849,394.659 506.515,393.326 509.5,392.5 Z"/></g>
<g><path style="opacity:0.792" fill="#757575" d="M 453.5,397.5 C 456.94,398.511 460.274,399.511 463.5,400.5C 463.5,400.833 463.5,401.167 463.5,401.5C 460.668,400.9 457.835,400.233 455,399.5C 453.97,399.164 453.47,398.497 453.5,397.5 Z"/></g>
<g><path style="opacity:0.357" fill="#848484" d="M 501.5,396.5 C 499.879,398.117 497.879,399.284 495.5,400C 484.917,402.554 474.251,403.054 463.5,401.5C 463.5,401.167 463.5,400.833 463.5,400.5C 476.483,402.127 489.15,400.794 501.5,396.5 Z"/></g>
</svg>
